<?xml version="1.0" standalone="no"?>
<!DOCTYPE svg PUBLIC "-//W3C//DTD SVG 20010904//EN"
 "http://www.w3.org/TR/2001/REC-SVG-20010904/DTD/svg10.dtd">
<svg version="1.0" xmlns="http://www.w3.org/2000/svg"
 width="308.000000pt" height="308.000000pt" viewBox="0 0 308.000000 308.000000"
 preserveAspectRatio="xMidYMid meet">
<metadata>
Created by potrace 1.14, written by Peter Selinger 2001-2017
</metadata>
<g transform="translate(0.000000,308.000000) scale(0.100000,-0.100000)"
fill="#000000" stroke="none">
<path d="M136 2321 c-24 -27 -37 -78 -26 -107 13 -34 25 -30 48 19 30 62 14
128 -22 88z"/>
<path d="M454 2234 c-34 -36 -44 -77 -22 -90 19 -12 78 61 78 96 0 39 -15 38
-56 -6z"/>
<path d="M210 2228 c-21 -34 -26 -83 -11 -106 7 -11 13 -9 30 9 23 25 36 77
26 108 -9 30 -22 26 -45 -11z"/>
<path d="M168 2227 c-23 -36 -88 -185 -88 -201 0 -8 -5 -18 -12 -22 -7 -5 -9
-2 -5 8 6 16 -17 58 -32 58 -14 0 -29 -45 -26 -82 2 -48 22 -73 42 -56 12 9
13 7 9 -13 -21 -94 -28 -269 -29 -758 -2 -324 1 -415 11 -418 9 -4 12 84 13
414 0 230 2 450 4 488 5 104 15 228 20 256 3 13 7 35 10 49 2 14 11 45 19 70
l14 45 1 -42 c1 -23 6 -43 12 -45 6 -2 3 -21 -10 -50 -11 -26 -25 -71 -32
-100 -16 -73 -25 -1088 -10 -1088 8 0 11 79 12 258 1 463 0 432 19 432 15 0
16 -26 15 -327 -1 -334 1 -363 16 -363 5 0 9 152 9 345 0 190 3 345 8 346 10
2 82 2 114 0 l26 -1 0 -330 c0 -182 1 -332 3 -334 2 -2 15 -6 29 -8 l25 -3 5
340 5 340 105 0 105 0 3 28 3 27 -110 0 -111 0 0 126 0 125 23 -7 c12 -4 38
-6 57 -5 34 2 273 78 335 106 17 7 43 18 58 24 15 6 27 15 27 21 0 14 9 16
-137 -40 -153 -58 -274 -93 -306 -88 -19 4 -18 6 16 23 20 10 37 24 37 32 0
14 -19 9 -65 -19 -39 -24 -45 -23 -45 6 0 17 10 31 33 44 45 28 447 228 475
237 25 7 30 25 7 25 -9 0 -42 -13 -75 -30 -56 -28 -96 -42 -57 -19 21 12 50
66 42 79 -13 21 -81 -16 -100 -55 -20 -44 -19 -48 10 -43 37 7 31 1 -22 -23
-27 -12 -52 -24 -58 -27 -5 -3 0 7 13 22 38 49 21 72 -31 44 -27 -14 -41 -28
-56 -56 -12 -23 -6 -47 10 -37 5 4 9 4 9 1 0 -3 -23 -17 -50 -31 -52 -26 -60
-24 -35 9 44 58 -18 58 -72 1 -36 -38 -42 -65 -15 -65 12 -1 10 -5 -10 -15
-15 -8 -35 -16 -45 -18 -10 -2 -48 -31 -84 -65 -83 -78 -118 -152 -121 -254
-1 -19 -6 -28 -18 -28 -15 0 -17 9 -14 69 3 78 39 170 99 251 35 48 154 131
295 207 165 89 210 116 204 124 -3 5 -28 -3 -55 -17 -48 -24 -50 -24 -44 -5 4
14 1 20 -12 23 -30 7 -85 -9 -106 -30 -28 -29 -13 -45 35 -39 36 5 29 -1 -63
-53 -57 -32 -106 -57 -107 -55 -2 2 5 23 16 48 15 34 38 57 101 103 78 56 94
74 69 74 -12 0 -103 -66 -151 -109 -31 -28 -57 -81 -57 -115 0 -15 -16 -32
-49 -54 -56 -36 -107 -95 -145 -167 -22 -43 -26 -46 -26 -23 0 79 54 253 88
280 13 11 13 10 -1 -12 -21 -33 -9 -54 24 -41 43 18 79 59 79 90 0 16 -32 13
-58 -5 -13 -9 -25 -14 -28 -11 -2 2 27 48 65 102 39 54 68 102 64 108 -7 12
-21 -6 -114 -143 -40 -58 -68 -94 -64 -80 18 52 14 117 -6 104 -14 -9 -11 3
21 66 29 57 27 94 -2 47z m132 -470 c0 -15 -11 -29 -30 -41 -17 -9 -41 -28
-55 -42 -34 -33 -38 -30 -14 11 17 28 84 95 96 95 2 0 3 -10 3 -23z m-2 -162
l-1 -105 -73 0 -74 0 0 30 c0 17 6 43 14 58 16 30 109 122 125 122 5 0 9 -46
9 -105z"/>
<path d="M217 1616 c-36 -24 -61 -66 -47 -80 23 -23 110 47 110 89 0 18 -29
14 -63 -9z"/>
<path d="M57 2177 c-18 -38 -19 -74 -1 -101 12 -17 14 -16 33 15 22 35 25 58
15 97 -9 32 -29 27 -47 -11z"/>
<path d="M325 2169 c-31 -15 -70 -78 -58 -90 24 -24 113 47 113 90 0 13 -28
13 -55 0z"/>
<path d="M855 2053 c-23 -6 -45 -22 -45 -33 0 -14 47 -28 85 -24 47 4 73 25
53 42 -17 13 -66 21 -93 15z"/>
<path d="M714 1990 c-24 -9 -39 -28 -31 -37 3 -2 22 -9 43 -13 58 -13 130 23
93 46 -19 11 -82 14 -105 4z"/>
<path d="M582 1923 c-74 -36 -2 -71 80 -38 17 7 32 34 24 42 -12 12 -76 9
-104 -4z"/>
<path d="M2522 1795 c-38 -17 -114 -91 -136 -134 -15 -28 -42 -113 -91 -288
-21 -76 -22 -83 -6 -83 22 0 41 19 41 42 0 10 5 18 12 18 6 0 9 3 5 6 -14 15
19 77 71 130 21 22 68 42 76 33 2 -2 -9 -49 -25 -104 -16 -55 -29 -105 -29
-111 0 -34 77 -15 99 23 5 10 11 16 13 13 2 -3 12 -17 21 -32 13 -22 23 -26
52 -25 19 1 35 5 35 10 0 4 5 7 10 7 14 0 80 66 80 80 0 15 -7 12 -34 -15 -27
-27 -73 -42 -86 -29 -4 5 -11 19 -14 30 -6 18 0 24 32 37 49 19 98 61 117 98
20 38 19 56 -5 69 -42 23 -142 -57 -181 -144 -10 -23 -30 -53 -44 -68 -29 -32
-51 -38 -36 -10 5 9 9 19 8 22 0 3 10 38 22 78 25 84 25 124 -2 128 -19 3
-137 -72 -137 -87 0 -5 -4 -9 -9 -9 -11 0 49 194 69 226 19 31 65 55 97 51 28
-4 63 18 63 40 0 17 -46 16 -88 -2z m201 -274 c14 -2 7 -30 -15 -56 -20 -22
-77 -41 -77 -25 -1 18 13 50 20 50 5 0 9 7 9 16 0 8 5 12 10 9 6 -3 10 -2 10
4 0 5 8 8 18 6 9 -2 20 -4 25 -4z"/>
<path d="M681 1784 c-27 -11 -31 -17 -22 -28 27 -32 141 -25 141 9 0 27 -74
39 -119 19z"/>
<path d="M548 1743 c-45 -12 0 -53 57 -53 27 0 75 19 75 30 0 21 -83 36 -132
23z"/>
<path d="M802 1683 c-63 -31 -84 -73 -73 -145 0 -5 25 -33 54 -63 36 -38 53
-64 55 -85 6 -77 -124 -112 -151 -40 -10 28 -12 28 -39 14 -31 -16 -32 -18
-18 -45 15 -26 59 -47 95 -42 17 2 38 4 48 4 9 0 17 5 17 10 0 6 4 8 9 4 6 -3
19 5 30 17 12 12 21 18 21 12 1 -19 39 52 41 76 5 52 -2 69 -51 117 -27 27
-54 62 -59 77 -9 23 -8 30 14 50 15 14 35 22 54 21 34 -1 64 -23 57 -40 -2 -7
0 -18 5 -26 5 -8 9 -9 9 -3 0 5 8 19 18 30 9 10 18 27 20 37 6 36 -96 50 -156
20z"/>
<path d="M1515 1684 c-47 -24 -73 -53 -79 -90 -8 -42 4 -67 61 -122 54 -53 66
-99 34 -131 -44 -44 -116 -39 -134 9 -10 28 -12 28 -39 14 -31 -16 -32 -18
-18 -45 23 -43 108 -57 163 -27 12 7 25 12 28 11 15 -4 61 58 69 92 11 49 2
71 -54 125 -58 57 -71 91 -47 121 18 23 91 36 91 17 0 -5 5 -6 10 -3 9 6 12 1
14 -34 2 -28 22 -21 41 15 19 36 19 36 0 50 -25 19 -103 18 -140 -2z"/>
<path d="M1044 1630 c-12 -5 -24 -20 -28 -34 -4 -16 -13 -26 -25 -26 -10 0
-26 -9 -36 -20 -16 -18 -14 -24 7 -22 3 1 11 -5 17 -12 8 -10 6 -30 -8 -77
-30 -98 -33 -125 -15 -143 8 -9 20 -16 25 -16 17 0 53 22 62 37 5 7 12 11 16
9 4 -3 7 4 8 14 2 18 0 18 -31 -1 -26 -15 -35 -16 -38 -7 -6 15 41 188 51 186
3 0 11 1 16 2 6 1 25 3 44 4 23 1 38 8 48 24 15 22 15 22 -42 22 l-57 0 6 35
c4 19 6 35 4 34 -2 0 -13 -4 -24 -9z"/>
<path d="M1729 1600 c-7 -18 -18 -30 -28 -30 -16 0 -51 -29 -51 -41 0 -3 10
-5 21 -6 12 -1 23 -4 26 -7 2 -2 -5 -35 -16 -73 -30 -102 -35 -139 -20 -148
28 -18 59 -12 88 16 40 38 40 54 -1 29 -22 -13 -34 -16 -39 -8 -8 13 36 179
50 187 5 4 30 6 54 5 38 -1 47 2 56 22 10 24 10 24 -44 24 l-55 0 5 30 c4 25
2 30 -15 30 -14 0 -24 -10 -31 -30z"/>
<path d="M1951 1562 c-67 -32 -141 -143 -141 -210 0 -58 35 -79 100 -61 20 6
90 75 90 90 0 7 -12 1 -27 -13 -37 -35 -75 -44 -97 -23 -24 24 -20 38 17 55
17 7 32 12 33 9 0 -2 12 8 26 24 14 15 28 27 32 27 4 0 22 11 40 25 18 14 36
25 39 25 6 0 -26 -125 -68 -266 -14 -44 -36 -94 -50 -110 -39 -46 -29 -64 13
-21 42 42 68 82 86 130 10 26 21 45 25 43 16 -11 93 22 126 53 75 71 120 198
80 227 -24 18 -77 -4 -127 -53 l-37 -36 14 51 c7 29 9 52 5 52 -5 0 -21 -11
-37 -24 -15 -13 -38 -26 -50 -30 -18 -6 -20 -3 -16 12 9 35 -29 47 -76 24z
m23 -48 c3 -8 1 -25 -5 -36 -11 -21 -74 -52 -89 -43 -17 10 28 75 60 88 24 9
27 8 34 -9z m252 -39 c-15 -99 -77 -165 -133 -144 -20 7 -21 11 -11 41 20 59
69 124 103 138 42 18 48 13 41 -35z"/>
<path d="M2854 1568 c-50 -27 -101 -98 -59 -82 8 4 15 12 15 20 0 8 7 14 15
14 19 0 19 -12 -1 -75 -28 -91 -42 -150 -38 -157 10 -16 52 24 58 55 8 43 42
105 77 141 16 17 29 26 29 22 0 -4 7 0 16 8 8 9 20 13 25 10 12 -7 5 -45 -22
-131 -31 -96 -17 -130 42 -97 13 7 20 13 15 14 -4 0 2 8 15 18 12 11 23 26 25
35 3 24 -3 21 -31 -10 -13 -16 -26 -25 -29 -22 -4 3 7 48 24 100 35 110 37
135 11 142 -21 5 -68 -15 -98 -41 -10 -9 -29 -25 -41 -36 l-21 -18 9 33 c6 19
10 39 10 45 0 17 -24 23 -46 12z"/>
<path d="M1112 1350 c-26 -24 -26 -29 -6 -55 11 -14 18 -16 21 -7 3 6 11 12
18 12 20 0 25 37 6 54 -16 14 -19 14 -39 -4z"/>
<path d="M1104 1202 c-5 -4 -9 -63 -9 -134 0 -115 1 -128 17 -128 14 0 18 12
20 76 3 69 5 78 25 85 38 14 53 -13 53 -92 0 -55 3 -69 15 -69 16 0 17 9 17
100 0 46 -4 58 -26 77 -21 18 -31 21 -52 13 -35 -14 -34 -15 -34 29 0 41 -9
55 -26 43z"/>
<path d="M2118 1202 c-49 -6 -94 -71 -92 -132 1 -8 2 -27 2 -42 3 -38 50 -88
87 -92 33 -4 95 17 95 32 0 14 -28 23 -35 12 -8 -13 -51 -13 -75 0 -36 19 -47
104 -20 156 14 25 57 39 90 29 11 -4 20 -2 20 4 0 6 0 14 0 19 0 10 -40 18
-72 14z"/>
<path d="M2237 1196 c-2 -6 -3 -65 -3 -131 1 -106 3 -120 19 -123 15 -3 17 6
17 72 0 62 3 77 18 84 19 10 43 5 54 -12 4 -6 8 -41 8 -78 0 -58 3 -68 18 -68
17 0 19 22 13 142 -2 32 -32 51 -73 45 l-38 -5 0 42 c0 31 -4 43 -15 43 -8 0
-16 -5 -18 -11z"/>
<path d="M2885 1074 c0 -120 2 -134 17 -134 14 0 18 12 20 78 3 77 3 77 32 80
38 5 46 -10 46 -90 0 -54 3 -68 15 -68 16 0 16 2 17 65 1 110 -12 130 -73 122
l-38 -5 -3 41 c-2 27 -8 41 -18 42 -13 2 -15 -18 -15 -131z"/>
<path d="M619 1183 c-1 -22 -1 -213 0 -230 1 -9 23 -13 77 -13 66 0 75 2 72
17 -2 13 -13 17 -43 16 -74 -3 -74 -3 -73 100 1 124 0 127 -17 127 -8 0 -15
-8 -16 -17z"/>
<path d="M987 1172 c-11 -2 -16 -9 -13 -18 3 -8 -1 -17 -9 -20 -19 -8 -19 -30
-1 -37 10 -4 13 -20 11 -54 -1 -26 2 -58 6 -71 10 -25 44 -42 71 -34 20 5 25
34 6 31 -45 -5 -48 -1 -48 66 0 63 1 65 25 65 16 0 25 6 25 15 0 9 -9 15 -24
15 -18 0 -26 6 -28 23 -2 16 -8 21 -21 19z"/>
<path d="M1335 1132 c-54 -11 -85 -76 -66 -135 16 -48 58 -67 118 -53 23 5 30
12 26 22 -3 10 -12 13 -22 8 -27 -11 -65 -5 -78 13 -27 35 -16 43 57 43 l70 0
-5 32 c-3 18 -11 38 -16 44 -14 17 -60 31 -84 26z m65 -58 c0 -17 -14 -20 -61
-16 -44 5 -47 20 -9 39 26 13 70 -1 70 -23z"/>
<path d="M1535 1132 c-11 -2 -25 -8 -32 -13 -7 -7 -13 -5 -15 2 -2 7 -11 10
-19 7 -13 -5 -16 -61 -10 -175 1 -7 8 -13 16 -13 12 0 15 14 15 65 0 51 4 69
20 85 11 11 26 17 33 14 8 -3 17 2 20 10 7 18 -1 24 -28 18z"/>
<path d="M2675 1132 c-11 -2 -26 -9 -32 -14 -9 -7 -13 -7 -13 1 0 17 -30 13
-31 -4 0 -8 -1 -46 -1 -85 0 -93 0 -90 17 -90 12 0 15 14 15 63 0 70 18 108
49 100 11 -3 21 2 24 11 7 18 -1 24 -28 18z"/>
<path d="M2784 1129 c-17 -5 -39 -18 -49 -29 -38 -42 -19 -141 30 -156 49 -16
111 0 96 25 -6 10 -14 11 -27 3 -20 -11 -63 1 -76 21 -12 19 -8 71 7 91 13 17
41 23 74 15 7 -2 15 1 18 7 6 17 -39 32 -73 23z"/>
<path d="M787 1124 c-14 -14 -7 -139 9 -162 13 -20 23 -22 77 -20 l62 3 0 90
c0 77 -2 90 -18 93 -15 3 -17 -6 -17 -71 0 -68 -2 -75 -24 -85 -42 -19 -59 4
-61 83 -1 63 -11 86 -28 69z"/>
<path d="M1597 1123 c-20 -19 -5 -31 32 -26 33 5 41 2 51 -16 9 -18 9 -22 -2
-20 -77 10 -131 -55 -87 -107 13 -16 75 -19 84 -4 5 8 11 7 21 -1 19 -15 52
-3 36 13 -7 7 -12 37 -12 68 0 76 -18 100 -74 100 -23 0 -46 -3 -49 -7z m78
-91 c20 -14 15 -41 -10 -58 -20 -13 -28 -14 -40 -4 -22 18 -18 45 8 58 27 13
30 13 42 4z"/>
<path d="M1755 1035 c0 -83 2 -95 17 -95 14 0 18 12 20 76 3 69 5 78 25 85 38
14 53 -13 53 -92 0 -55 3 -69 15 -69 16 0 18 8 18 82 -1 72 -10 97 -40 104
-15 4 -39 2 -55 -4 -16 -6 -28 -6 -28 -1 0 5 -6 9 -13 9 -9 0 -12 -24 -12 -95z"/>
<path d="M2417 1123 c-4 -3 -7 -36 -7 -72 0 -95 13 -111 93 -109 l62 1 0 94
c1 79 -2 93 -15 91 -11 -3 -16 -20 -18 -74 -3 -65 -5 -72 -28 -82 -20 -10 -27
-9 -42 6 -14 14 -18 33 -17 85 2 63 -7 82 -28 60z"/>
</g>
</svg>
